<svg width="25" height="24" viewBox="0 0 25 24" fill="none" xmlns="http://www.w3.org/2000/svg">
<path d="M16.8179 5.82C16.8179 5.82 17.3279 6.32 16.8179 5.82C16.1344 5.03962 15.7576 4.03743 15.7579 3H12.6679V15.4C12.6441 16.071 12.3608 16.7066 11.8777 17.1729C11.3946 17.6393 10.7494 17.8999 10.0779 17.9C8.65793 17.9 7.47793 16.74 7.47793 15.3C7.47793 13.58 9.13793 12.29 10.8479 12.82V9.66C7.39793 9.2 4.37793 11.88 4.37793 15.3C4.37793 18.63 7.13793 21 10.0679 21C13.2079 21 15.7579 18.45 15.7579 15.3V9.01C17.0109 9.90985 18.5153 10.3926 20.0579 10.39V7.3C20.0579 7.3 18.1779 7.39 16.8179 5.82Z" fill="#FCFCFC"/>
</svg>
