<svg width="93" height="28" viewBox="0 0 93 28" fill="none" xmlns="http://www.w3.org/2000/svg">
<path d="M6.61254 6.54345C7.8699 6.54345 9.11473 6.77947 10.2865 7.23479C10.936 7.50005 11.5396 7.86347 12.0785 8.31252C12.6007 8.74905 12.6299 9.08741 12.1955 9.6221C11.8989 9.98761 11.5939 10.3489 11.2848 10.704C11.0217 11.0737 10.5204 11.1823 10.1277 10.9505C9.97107 10.8732 9.82069 10.7834 9.67657 10.6852C8.78263 10.0503 7.72787 9.67849 6.63343 9.60748C6.1614 9.56988 5.68728 9.63672 5.24657 9.80381C5.04815 9.88527 4.86018 9.99179 4.691 10.1234C4.24612 10.4367 4.1396 11.0528 4.45289 11.4977C4.51346 11.5854 4.58865 11.6606 4.67429 11.7233C5.01473 11.9927 5.41784 12.1681 5.84601 12.235C6.55824 12.3812 7.27673 12.4982 7.98477 12.6527C8.6427 12.7947 9.29853 12.9409 9.93974 13.1415C10.6165 13.3378 11.2347 13.6949 11.7464 14.1795C12.8931 15.2865 13.2711 16.972 12.7072 18.4633C12.3709 19.4429 11.6942 20.27 10.8003 20.7921C9.95227 21.3498 8.98732 21.7028 7.9806 21.8239C6.30969 22.0787 4.60118 21.9221 3.00547 21.3644C2.19299 21.0741 1.43481 20.648 0.764359 20.1029C0.545052 19.9253 0.350809 19.7186 0.187895 19.4888C-0.0961593 19.1588 -0.0564752 18.6596 0.273529 18.3777C0.279795 18.3714 0.286061 18.3672 0.294416 18.361C0.340366 18.3108 0.388404 18.2649 0.44062 18.221C0.816575 17.914 1.18835 17.6028 1.57057 17.3062C1.89431 17.0117 2.38096 16.9929 2.72768 17.2582C2.85926 17.3501 2.98667 17.4503 3.10781 17.5568C4.21479 18.5301 5.67474 19.0043 7.14305 18.8706C7.6861 18.8518 8.20617 18.6387 8.6051 18.267C8.97688 17.9265 9.07087 17.3793 8.83485 16.9344C8.69073 16.6859 8.45681 16.5042 8.18111 16.4227C7.73623 16.2744 7.28299 16.1366 6.82558 16.0321C5.9212 15.8274 5.00638 15.6603 4.09991 15.4557C2.99085 15.251 1.98621 14.6682 1.25728 13.8056C0.0145384 12.2141 0.102261 9.95837 1.46405 8.46708C2.43318 7.45618 3.72813 6.81706 5.11917 6.66668C5.61417 6.60193 6.11336 6.58313 6.60836 6.54136L6.61254 6.54345Z" fill="#2E9092"/>
<path d="M18.6203 8.62575C18.683 8.57771 18.7415 8.52759 18.7958 8.47119C19.5853 7.5146 20.6985 6.88383 21.9246 6.70003C23.0399 6.47863 24.1887 6.51205 25.2894 6.79193C27.4031 7.30365 29.0301 8.98918 29.4708 11.1175C29.6024 11.6668 29.6692 12.2307 29.6671 12.7947C29.6859 15.4347 29.6755 18.0727 29.6755 20.7127C29.6755 21.31 29.4792 21.5126 28.8818 21.5168C28.1278 21.5231 27.3738 21.5231 26.6198 21.5168C26.0016 21.5126 25.7969 21.3038 25.7969 20.6918C25.7969 18.457 25.8011 16.2221 25.7927 13.9873C25.7948 13.6239 25.7656 13.2625 25.7029 12.9054C25.5066 11.3681 24.2158 10.2048 22.6681 10.1651C22.2128 10.1317 21.7533 10.1609 21.3042 10.2528C19.8735 10.5557 18.8041 11.7545 18.6621 13.2103C18.6266 13.5048 18.6078 13.7993 18.6078 14.0959C18.6036 16.2493 18.6036 18.4047 18.6078 20.5602C18.6078 20.6542 18.5995 20.7503 18.6078 20.8422C18.6433 21.1764 18.401 21.475 18.0689 21.5105C18.0355 21.5147 18.0021 21.5147 17.9687 21.5126C17.1061 21.521 16.2456 21.5273 15.383 21.5126C15.0446 21.5377 14.7501 21.2829 14.725 20.9424C14.723 20.9111 14.723 20.8777 14.725 20.8464C14.7209 20.7524 14.725 20.6584 14.725 20.5644V1.09413C14.6916 0.755771 14.9381 0.455008 15.2764 0.42159C15.3203 0.417412 15.3642 0.417412 15.408 0.42159C16.2414 0.411147 17.0748 0.411147 17.9123 0.42159C18.4136 0.427856 18.6036 0.640897 18.6036 1.15679V8.14537C18.6036 8.28531 18.6141 8.42524 18.6203 8.62575Z" fill="#2E9092"/>
<path d="M52.7924 8.68216C52.8196 8.60905 52.8551 8.53804 52.8969 8.47329C53.8367 7.35378 55.1985 6.67289 56.6585 6.59561C60.4201 6.28231 63.7766 8.95368 64.3154 12.6882C64.5514 14.1419 64.4428 15.631 64.0042 17.0367C63.0623 19.9002 60.4201 21.8635 57.4062 21.9346C56.3515 21.9617 55.3071 21.7382 54.3589 21.2766C53.8242 21.0176 53.348 20.65 52.9637 20.1947C52.9073 20.1216 52.8258 20.0715 52.736 20.0527V27.1039C52.7402 27.2125 52.7381 27.3191 52.7298 27.4277C52.7172 27.741 52.4624 27.9874 52.1491 27.9895C51.2468 28.002 50.3445 28.002 49.4423 27.9895C49.1269 27.9979 48.8658 27.7472 48.8574 27.4318C48.8574 27.4193 48.8574 27.4089 48.8574 27.3963C48.8491 27.2898 48.8533 27.1812 48.8533 27.0726V7.76733C48.8616 7.19087 49.0538 6.99663 49.6365 6.99245C50.3905 6.98827 51.1445 6.98827 51.8985 6.99245C52.4624 6.99663 52.665 7.20758 52.6692 7.78195V8.61114L52.7924 8.68216ZM56.4329 10.1776C55.6727 10.1902 54.9354 10.445 54.3297 10.9045C52.477 12.3456 52.145 15.017 53.5861 16.8675C53.8681 17.2289 54.2043 17.5422 54.5866 17.7949C55.9818 18.6491 57.7634 18.5343 59.0375 17.5108C60.1194 16.619 60.6749 15.2384 60.5099 13.8453C60.3679 11.719 58.5612 10.092 56.4308 10.1755L56.4329 10.1776Z" fill="#2E9092"/>
<path d="M70.22 20.0507V27.102C70.22 27.2106 70.2263 27.3171 70.22 27.4257C70.22 27.739 69.9631 27.9917 69.6498 27.9917C68.7476 28.0064 67.8473 28.0064 66.9451 27.9917C66.6213 27.9938 66.3561 27.7328 66.354 27.409C66.354 27.4069 66.354 27.4027 66.354 27.4007C66.3456 27.2941 66.354 27.1855 66.354 27.0769V7.65469C66.3289 7.31633 66.5837 7.02183 66.9221 6.99677C66.9513 6.99468 66.9827 6.99468 67.0119 6.99677C67.5236 6.98424 68.0353 6.99259 68.547 6.99259C68.8708 6.99259 69.1924 6.98424 69.5162 6.99259C69.8483 6.96126 70.1428 7.20563 70.1741 7.53773C70.1783 7.57532 70.1783 7.61292 70.1741 7.65051C70.1866 7.96799 70.1741 8.28755 70.1741 8.69483C70.2952 8.57996 70.3516 8.53401 70.3976 8.4797C71.3395 7.36228 72.6992 6.68139 74.1592 6.59993C77.8269 6.28663 81.1311 8.81806 81.7806 12.4418C82.0647 13.9415 81.9832 15.4892 81.5446 16.9512C80.6277 19.869 77.9501 21.8762 74.8923 21.9389C73.7979 21.9639 72.7139 21.7154 71.7406 21.2162C71.1934 20.9238 70.713 20.5207 70.3287 20.034L70.2242 20.0528L70.22 20.0507ZM70.1992 13.9122C70.1156 15.0965 70.5145 16.264 71.3082 17.1455C72.7494 18.6973 75.1743 18.785 76.7261 17.3439C76.8222 17.2541 76.9141 17.1601 77.0018 17.0598C77.8561 16.0928 78.2112 14.7853 77.9668 13.5196C77.6911 11.4038 75.7528 9.91251 73.6371 10.1882C73.1525 10.2509 72.6846 10.4054 72.2585 10.6435C71.0179 11.2639 70.2242 12.5233 70.2012 13.9122H70.1992Z" fill="#2E9092"/>
<path d="M87.606 8.818C87.7376 8.63838 87.842 8.50053 87.9444 8.36476C88.8028 7.21393 90.221 6.62284 91.6433 6.82544C91.942 6.81917 92.1885 7.05519 92.1947 7.35386C92.1947 7.35386 92.1947 7.35804 92.1947 7.36013C92.2115 7.54811 92.2198 7.73608 92.2135 7.92406C92.2135 8.63838 92.2198 9.3506 92.2135 10.0649C92.2073 10.6393 91.9754 10.8628 91.4052 10.8941C90.8956 10.8983 90.3839 10.9338 89.8784 11.0027C88.8864 11.1594 88.0989 11.9238 87.9151 12.9117C87.8003 13.3817 87.7397 13.8641 87.7376 14.3466C87.7188 16.4603 87.7292 18.574 87.7292 20.6877C87.7292 21.306 87.5266 21.5148 86.9147 21.519C86.1481 21.5232 85.3795 21.5232 84.613 21.519C84.0595 21.5148 83.8548 21.3101 83.8548 20.7629V7.75697C83.8548 7.20348 84.0574 6.99671 84.6046 6.99462C85.3315 6.98835 86.0583 6.98835 86.7852 6.99462C87.3345 6.9988 87.5392 7.20557 87.5475 7.75279C87.5517 8.06191 87.5517 8.37103 87.5559 8.68224C87.5663 8.73028 87.583 8.77623 87.6039 8.82218L87.606 8.818Z" fill="#2E9092"/>
<path d="M39.2687 6.57064C41.94 6.51843 44.4443 7.8656 45.8729 10.1255C46.7961 11.5061 47.2118 13.1645 47.0447 14.8166C46.7961 17.9621 45.1168 20.1113 42.2721 21.3707C38.8405 22.745 34.9139 21.5984 32.7605 18.5949C31.783 17.2352 31.3214 15.5727 31.453 13.9038C31.6451 10.6372 33.3537 8.40864 36.3049 7.10533C37.2427 6.71685 38.2536 6.53514 39.2666 6.57273L39.2687 6.57064ZM43.1535 14.1754C43.1452 13.954 43.1264 13.7326 43.093 13.5133C43.0491 13.2334 42.9781 12.9598 42.8778 12.6945C42.1405 10.6936 39.9203 9.67018 37.9194 10.4096C37.2928 10.6414 36.7352 11.032 36.3049 11.5437C35.4423 12.5609 35.1269 13.9331 35.4632 15.2239C35.8579 17.3083 37.8672 18.6764 39.9517 18.2816C40.3631 18.2043 40.7579 18.0581 41.1213 17.8535C42.4538 17.1224 43.2433 15.6896 43.1535 14.1733V14.1754Z" fill="#2E9092"/>
</svg>
