<svg width="153" height="48" viewBox="0 0 153 48" fill="none" xmlns="http://www.w3.org/2000/svg">
<g clip-path="url(#clip0_1990_52650)">
<path d="M147.743 47.7807H5.05981C2.44395 47.7807 0.303711 45.6405 0.303711 43.0246V4.97582C0.303711 2.35997 2.44395 0.219727 5.05981 0.219727H147.743C150.359 0.219727 152.499 2.35997 152.499 4.97582V43.0246C152.499 45.6405 150.359 47.7807 147.743 47.7807Z" fill="black"/>
<path fill-rule="evenodd" clip-rule="evenodd" d="M11.9561 23.5246V11.0399C11.9561 10.3264 12.5506 9.73193 13.1451 9.73193C13.7396 9.73193 13.9774 9.85084 14.3341 10.0886L37.2823 22.6923C37.7579 22.9301 37.9957 23.2868 37.9957 23.6435C37.9957 24.0002 37.7579 24.3569 37.2823 24.5947L14.3341 37.1984C14.0963 37.3173 13.7396 37.5551 13.1451 37.5551C12.5506 37.5551 11.9561 36.9606 11.9561 36.2472V23.5246Z" fill="url(#paint0_linear_1990_52650)"/>
<path fill-rule="evenodd" clip-rule="evenodd" d="M26.8188 23.6435L12.9072 9.73193C13.0261 9.73193 13.0261 9.73193 13.145 9.73193C13.7395 9.73193 13.9773 9.85084 14.3341 10.0886L31.2182 19.363L26.8188 23.6435Z" fill="url(#paint1_linear_1990_52650)"/>
<path fill-rule="evenodd" clip-rule="evenodd" d="M31.0998 27.8054L26.8193 23.5249L31.2187 19.1255L37.2828 22.4548C37.7584 22.6926 37.9962 23.0493 37.9962 23.406C37.9962 23.7627 37.7584 24.1194 37.2828 24.3572L31.0998 27.8054Z" fill="url(#paint2_linear_1990_52650)"/>
<path fill-rule="evenodd" clip-rule="evenodd" d="M13.0264 37.3176L26.8191 23.5249L31.0995 27.8054L14.3343 36.9609C13.9776 37.1987 13.7398 37.3176 13.0264 37.3176C13.1453 37.3176 13.1453 37.3176 13.0264 37.3176Z" fill="url(#paint3_linear_1990_52650)"/>
<path fill-rule="evenodd" clip-rule="evenodd" d="M84.8436 40.5276C84.2491 40.0519 83.7735 39.2196 83.5357 38.744L85.4381 37.9117C85.557 38.1495 85.7948 38.5062 86.0326 38.8629C86.5082 39.3385 87.2217 39.8141 87.9351 39.8141C88.6485 39.8141 89.4808 39.4574 89.9564 38.8629C90.3131 38.2684 90.5509 37.6739 90.5509 36.8416V36.1282C89.1241 37.9117 86.1515 37.6739 84.4869 35.7715C82.7033 33.869 82.7033 30.6587 84.4869 28.7562C86.2704 26.9727 88.8863 26.7349 90.432 28.3995V27.5672H92.4533V36.4849C92.4533 38.744 91.621 40.0519 90.5509 40.8843C89.8375 41.4788 88.7674 41.7166 87.8162 41.7166C86.746 41.5977 85.6759 41.241 84.8436 40.5276ZM134.664 41.0032L136.685 36.2471L133.118 28.0428H135.139L137.636 33.869L140.133 28.0428H142.155L136.685 41.0032H134.664ZM125.033 36.4849C124.438 35.8904 124.2 35.058 124.2 34.2257C124.2 33.5123 124.438 32.7989 124.914 32.3233C125.746 31.491 126.935 31.1343 128.243 31.1343C129.075 31.1343 129.789 31.2532 130.383 31.6099C130.383 30.183 129.194 29.5885 128.243 29.5885C127.411 29.5885 126.578 30.0641 126.222 30.8965L124.438 30.183C124.795 29.3507 125.746 27.805 128.124 27.805C129.313 27.805 130.502 28.1617 131.216 28.994C131.929 29.8263 132.167 30.7776 132.167 32.0855V37.0794H130.145V36.2471C129.908 36.6038 129.432 36.8416 129.075 37.0794C128.6 37.3172 128.005 37.4361 127.411 37.4361C126.697 37.3172 125.627 37.0794 125.033 36.4849ZM61.6576 32.2044C61.6576 29.8263 63.4412 27.2105 66.6515 27.2105C69.743 27.2105 71.6454 29.8263 71.6454 32.2044C71.6454 34.5824 69.8619 37.1983 66.6515 37.1983C63.4412 37.1983 61.6576 34.5824 61.6576 32.2044ZM72.3588 32.2044C72.3588 29.8263 74.1424 27.2105 77.3527 27.2105C80.4442 27.2105 82.3466 29.8263 82.3466 32.2044C82.3466 34.5824 80.5631 37.1983 77.3527 37.1983C74.2613 37.1983 72.3588 34.5824 72.3588 32.2044ZM48.2216 34.8202C45.2491 31.8477 45.368 26.9727 48.3405 23.8812C49.8863 22.3355 51.7887 21.6221 53.8101 21.6221C55.7125 21.6221 57.6149 22.3355 59.0418 23.7623L57.6149 25.308C55.4747 23.1678 52.0265 23.2867 50.0052 25.4269C47.8649 27.6861 47.8649 31.1343 50.0052 33.3934C52.1454 35.6526 55.7125 35.7715 57.8527 33.5123C58.5661 32.7989 58.804 31.8477 58.9229 30.8965H53.929V28.7562H60.9442C61.0631 29.2318 61.0631 29.8263 61.0631 30.4209C61.0631 32.2044 60.3497 33.9879 59.1607 35.1769C57.8527 36.4849 55.9503 37.1983 54.0479 37.1983C51.9076 37.0794 49.7674 36.366 48.2216 34.8202ZM98.5174 35.6526C96.7338 33.7501 96.7338 30.5398 98.5174 28.5184C100.301 26.616 103.273 26.616 104.938 28.5184C105.533 29.1129 105.889 29.9452 106.246 30.7776L99.7064 33.5123C100.063 34.3446 100.895 35.058 102.084 35.058C103.155 35.058 103.868 34.7013 104.581 33.6312L106.365 34.8202C106.127 35.058 105.889 35.2959 105.77 35.5337C103.749 37.555 100.301 37.555 98.5174 35.6526ZM110.883 37.0794V23.8812H115.164C117.661 23.8812 119.682 25.6648 119.682 27.805C119.682 29.9452 117.898 31.7288 115.639 31.7288H113.023V36.9605H110.883V37.0794ZM120.871 37.0794V23.8812H122.892V37.0794H120.871ZM93.9991 36.8416V22.0977H96.1393V36.8416H93.9991ZM130.264 33.1556C129.789 32.7989 129.075 32.68 128.362 32.68C126.935 32.68 126.103 33.3934 126.103 34.2257C126.103 35.058 126.935 35.5337 127.767 35.5337C128.956 35.5337 130.264 34.5824 130.264 33.1556ZM69.3863 32.2044C69.3863 30.7776 68.4351 29.2318 66.6515 29.2318C64.868 29.2318 63.9168 30.7776 63.9168 32.2044C63.9168 33.6312 64.868 35.1769 66.6515 35.1769C68.3162 35.1769 69.3863 33.6312 69.3863 32.2044ZM80.0875 32.2044C80.0875 30.7776 79.1363 29.2318 77.3527 29.2318C75.5692 29.2318 74.618 30.7776 74.618 32.2044C74.618 33.6312 75.5692 35.1769 77.3527 35.1769C79.1363 35.1769 80.0875 33.6312 80.0875 32.2044ZM90.6698 33.0367C90.6698 32.9178 90.6698 32.7989 90.7887 32.68C90.7887 32.5611 90.7887 32.3233 90.7887 32.2044C90.7887 32.0855 90.7887 31.8477 90.7887 31.7288V31.6099C90.7887 31.491 90.6698 31.2532 90.6698 31.1343C90.3131 29.9452 89.243 29.1129 88.1729 29.1129C86.746 29.1129 85.557 30.5398 85.557 32.0855C85.557 33.7501 86.746 35.058 88.2918 35.058C89.243 35.1769 90.1942 34.3446 90.6698 33.0367ZM99.3497 31.9666L103.749 30.0641C103.273 29.2318 102.56 28.994 101.966 28.994C100.182 29.1129 99.1119 31.0154 99.3497 31.9666ZM117.542 27.9239C117.542 26.7349 116.591 25.9026 115.283 25.9026H112.905V30.0641H115.401C116.591 30.0641 117.542 29.1129 117.542 27.9239Z" fill="white"/>
<path fill-rule="evenodd" clip-rule="evenodd" d="M136.209 38.6252H136.09V38.5063H136.209H136.09V38.6252H136.209Z" fill="white"/>
<path fill-rule="evenodd" clip-rule="evenodd" d="M136.447 38.6252C136.447 38.5063 136.447 38.5063 136.447 38.6252C136.328 38.5063 136.328 38.5063 136.447 38.6252C136.328 38.6252 136.328 38.6252 136.447 38.6252ZM136.447 38.5063C136.447 38.6252 136.447 38.6252 136.447 38.5063C136.328 38.6252 136.447 38.6252 136.447 38.5063C136.447 38.5063 136.328 38.5063 136.447 38.5063Z" fill="white"/>
<path fill-rule="evenodd" clip-rule="evenodd" d="M136.566 38.5063H136.447H136.566V38.6252V38.5063Z" fill="white"/>
<path d="M46.5566 12.2289C46.5566 10.0887 48.1024 8.78076 50.0048 8.78076C51.3127 8.78076 52.1451 9.37527 52.7396 10.2076L51.7884 10.8021C51.4317 10.3265 50.8371 9.96979 50.0048 9.96979C48.6969 9.96979 47.7457 10.921 47.7457 12.3478C47.7457 13.7747 48.6969 14.7259 50.0048 14.7259C50.7182 14.7259 51.3128 14.3692 51.5506 14.1314V13.0613H49.6481V11.9911H52.8585V14.4881C52.264 15.2015 51.3127 15.6771 50.1237 15.6771C48.1024 15.6771 46.5566 14.2503 46.5566 12.2289Z" fill="white"/>
<path d="M54.2852 15.5584V8.8999H58.8035V9.97003H55.3553V11.6347H58.6846V12.7048H55.3553V14.6072H58.8035V15.6773L54.2852 15.5584Z" fill="white"/>
<path d="M62.1327 15.5584V9.97003H60.1113V8.8999H65.343V9.97003H63.3217V15.5584H62.1327Z" fill="white"/>
<path d="M69.3857 15.5584V8.8999H70.5748V15.5584H69.3857Z" fill="white"/>
<path d="M73.785 15.5584V9.97003H71.7637V8.8999H76.9954V9.97003H74.974V15.5584H73.785Z" fill="white"/>
<path d="M80.8008 12.2289C80.8008 10.2076 82.2276 8.78076 84.249 8.78076C86.2703 8.78076 87.6971 10.2076 87.6971 12.2289C87.6971 14.2503 86.2703 15.6771 84.249 15.6771C82.2276 15.6771 80.8008 14.1314 80.8008 12.2289ZM86.3892 12.2289C86.3892 10.8021 85.5569 9.85088 84.1301 9.85088C82.8221 9.85088 81.8709 10.921 81.8709 12.2289C81.8709 13.6558 82.7032 14.607 84.1301 14.607C85.5569 14.607 86.3892 13.5369 86.3892 12.2289Z" fill="white"/>
<path d="M93.6421 15.5584L90.1939 10.8023V15.5584H89.0049V8.8999H90.1939L93.6421 13.5371V8.8999H94.8311V15.5584H93.6421Z" fill="white"/>
</g>
<defs>
<linearGradient id="paint0_linear_1990_52650" x1="19.6459" y1="8.03591" x2="26.3023" y2="35.3726" gradientUnits="userSpaceOnUse">
<stop stop-color="#006884"/>
<stop offset="1" stop-color="#8AD1D0"/>
</linearGradient>
<linearGradient id="paint1_linear_1990_52650" x1="11.5288" y1="11.9243" x2="29.6685" y2="21.7307" gradientUnits="userSpaceOnUse">
<stop stop-color="#24BBB6"/>
<stop offset="1" stop-color="#DBE692"/>
</linearGradient>
<linearGradient id="paint2_linear_1990_52650" x1="32.4011" y1="28.3049" x2="32.4011" y2="18.854" gradientUnits="userSpaceOnUse">
<stop stop-color="#FCC072"/>
<stop offset="1" stop-color="#F58A5B"/>
</linearGradient>
<linearGradient id="paint3_linear_1990_52650" x1="15.0414" y1="39.7778" x2="29.3712" y2="25.1942" gradientUnits="userSpaceOnUse">
<stop stop-color="#712B8F"/>
<stop offset="1" stop-color="#EA1D27"/>
</linearGradient>
<clipPath id="clip0_1990_52650">
<rect width="152.195" height="48" fill="white" transform="translate(0.303711)"/>
</clipPath>
</defs>
</svg>
