<svg width="93" height="32" viewBox="0 0 93 32" fill="none" xmlns="http://www.w3.org/2000/svg">
<g clip-path="url(#clip0_1990_52719)">
<path fill-rule="evenodd" clip-rule="evenodd" d="M39.7617 1.8756C40.0875 1.10698 40.6348 0.455323 41.3345 0C42.385 1.15502 42.8989 2.70061 42.7443 4.25455C42.6315 5.07121 42.3704 5.85862 41.9757 6.58129C41.6499 5.15684 41.0755 3.80341 40.2776 2.57738C40.1126 2.32883 39.9413 2.0949 39.7596 1.87351L39.7617 1.8756ZM41.1548 8.82867C41.2906 7.01155 40.8311 5.2007 39.8515 3.66556C38.7801 2.15338 37.1196 1.16546 35.2774 0.948241C34.2791 3.94335 37.1342 8.77018 41.1548 8.82867Z" fill="#9FCE2C"/>
<path d="M6.61254 10.5433C7.8699 10.5433 9.11473 10.7793 10.2865 11.2346C10.936 11.4999 11.5396 11.8633 12.0785 12.3123C12.6007 12.7489 12.6299 13.0872 12.1955 13.6219C11.8989 13.9874 11.5939 14.3488 11.2848 14.7038C11.0217 15.0735 10.5204 15.1821 10.1277 14.9503C9.97107 14.873 9.82069 14.7832 9.67657 14.685C8.78263 14.0501 7.72787 13.6783 6.63343 13.6073C6.1614 13.5697 5.68728 13.6365 5.24657 13.8036C5.04815 13.8851 4.86018 13.9916 4.691 14.1232C4.24612 14.4365 4.1396 15.0526 4.45289 15.4975C4.51346 15.5852 4.58865 15.6604 4.67429 15.7231C5.01473 15.9925 5.41784 16.168 5.84601 16.2348C6.55824 16.381 7.27673 16.498 7.98477 16.6525C8.6427 16.7946 9.29853 16.9408 9.93974 17.1413C10.6165 17.3376 11.2347 17.6948 11.7464 18.1793C12.8931 19.2863 13.2711 20.9718 12.7072 22.4631C12.3709 23.4427 11.6942 24.2698 10.8003 24.7919C9.95227 25.3496 8.98732 25.7026 7.9806 25.8237C6.30969 26.0785 4.60118 25.9219 3.00547 25.3642C2.19299 25.0739 1.43481 24.6478 0.764359 24.1027C0.545052 23.9252 0.350809 23.7184 0.187895 23.4886C-0.0961593 23.1586 -0.0564752 22.6594 0.273529 22.3775C0.279795 22.3712 0.286061 22.367 0.294416 22.3608C0.340366 22.3106 0.388404 22.2647 0.44062 22.2208C0.816575 21.9138 1.18835 21.6026 1.57057 21.306C1.89431 21.0115 2.38096 20.9927 2.72768 21.258C2.85926 21.3499 2.98667 21.4501 3.10781 21.5566C4.21479 22.53 5.67474 23.0041 7.14305 22.8704C7.6861 22.8516 8.20617 22.6386 8.6051 22.2668C8.97688 21.9263 9.07087 21.3791 8.83485 20.9342C8.69073 20.6857 8.45681 20.504 8.18111 20.4225C7.73623 20.2742 7.28299 20.1364 6.82558 20.0319C5.9212 19.8273 5.00638 19.6602 4.09991 19.4555C2.99085 19.2508 1.98621 18.6681 1.25728 17.8055C0.0145384 16.2139 0.102261 13.9582 1.46405 12.4669C2.43318 11.456 3.72813 10.8169 5.11917 10.6665C5.61417 10.6017 6.11336 10.583 6.60836 10.5412L6.61254 10.5433Z" fill="white"/>
<path d="M18.6203 12.6256C18.683 12.5775 18.7415 12.5274 18.7958 12.471C19.5853 11.5144 20.6985 10.8836 21.9246 10.6998C23.0399 10.4785 24.1887 10.5119 25.2894 10.7917C27.4031 11.3035 29.0301 12.989 29.4708 15.1173C29.6024 15.6666 29.6692 16.2306 29.6671 16.7945C29.6859 19.4345 29.6755 22.0725 29.6755 24.7125C29.6755 25.3099 29.4792 25.5125 28.8818 25.5166C28.1278 25.5229 27.3738 25.5229 26.6198 25.5166C26.0016 25.5125 25.7969 25.3036 25.7969 24.6916C25.7969 22.4568 25.8011 20.2219 25.7927 17.9871C25.7948 17.6237 25.7656 17.2623 25.7029 16.9052C25.5066 15.3679 24.2158 14.2046 22.6681 14.1649C22.2128 14.1315 21.7533 14.1607 21.3042 14.2526C19.8735 14.5555 18.8041 15.7543 18.6621 17.2101C18.6266 17.5046 18.6078 17.7991 18.6078 18.0957C18.6036 20.2491 18.6036 22.4046 18.6078 24.56C18.6078 24.654 18.5995 24.7501 18.6078 24.842C18.6433 25.1762 18.401 25.4749 18.0689 25.5104C18.0355 25.5145 18.0021 25.5145 17.9687 25.5125C17.1061 25.5208 16.2456 25.5271 15.383 25.5125C15.0446 25.5375 14.7501 25.2827 14.725 24.9423C14.723 24.9109 14.723 24.8775 14.725 24.8462C14.7209 24.7522 14.725 24.6582 14.725 24.5642V5.09395C14.6916 4.75559 14.9381 4.45482 15.2764 4.42141C15.3203 4.41723 15.3642 4.41723 15.408 4.42141C16.2414 4.41096 17.0748 4.41096 17.9123 4.42141C18.4136 4.42767 18.6036 4.64071 18.6036 5.15661V12.1452C18.6036 12.2851 18.6141 12.4251 18.6203 12.6256Z" fill="white"/>
<path d="M52.7924 12.682C52.8196 12.6089 52.8551 12.5379 52.8969 12.4731C53.8367 11.3536 55.1985 10.6727 56.6585 10.5954C60.4201 10.2821 63.7766 12.9535 64.3154 16.688C64.5514 18.1417 64.4428 19.6309 64.0042 21.0365C63.0623 23.9 60.4201 25.8634 57.4062 25.9344C56.3515 25.9615 55.3071 25.738 54.3589 25.2764C53.8242 25.0175 53.348 24.6499 52.9637 24.1945C52.9073 24.1214 52.8258 24.0713 52.736 24.0525V31.1037C52.7402 31.2124 52.7381 31.3189 52.7298 31.4275C52.7172 31.7408 52.4624 31.9872 52.1491 31.9893C51.2468 32.0019 50.3445 32.0019 49.4423 31.9893C49.1269 31.9977 48.8658 31.747 48.8574 31.4317C48.8574 31.4191 48.8574 31.4087 48.8574 31.3962C48.8491 31.2896 48.8533 31.181 48.8533 31.0724V11.7671C48.8616 11.1907 49.0538 10.9964 49.6365 10.9923C50.3905 10.9881 51.1445 10.9881 51.8985 10.9923C52.4624 10.9964 52.665 11.2074 52.6692 11.7818V12.611L52.7924 12.682ZM56.4329 14.1774C55.6727 14.19 54.9354 14.4448 54.3297 14.9043C52.477 16.3454 52.145 19.0168 53.5861 20.8673C53.8681 21.2287 54.2043 21.542 54.5866 21.7947C55.9818 22.6489 57.7634 22.5341 59.0375 21.5106C60.1194 20.6188 60.6749 19.2382 60.5099 17.8451C60.3679 15.7189 58.5612 14.0918 56.4308 14.1753L56.4329 14.1774Z" fill="white"/>
<path d="M70.22 24.0506V31.1018C70.22 31.2104 70.2263 31.3169 70.22 31.4255C70.22 31.7388 69.9631 31.9916 69.6498 31.9916C68.7476 32.0062 67.8473 32.0062 66.9451 31.9916C66.6213 31.9936 66.3561 31.7326 66.354 31.4088C66.354 31.4067 66.354 31.4026 66.354 31.4005C66.3456 31.294 66.354 31.1853 66.354 31.0767V11.6545C66.3289 11.3161 66.5837 11.0217 66.9221 10.9966C66.9513 10.9945 66.9827 10.9945 67.0119 10.9966C67.5236 10.9841 68.0353 10.9924 68.547 10.9924C68.8708 10.9924 69.1924 10.9841 69.5162 10.9924C69.8483 10.9611 70.1428 11.2055 70.1741 11.5375C70.1783 11.5751 70.1783 11.6127 70.1741 11.6503C70.1866 11.9678 70.1741 12.2874 70.1741 12.6946C70.2952 12.5798 70.3516 12.5338 70.3976 12.4795C71.3395 11.3621 72.6992 10.6812 74.1592 10.5997C77.8269 10.2865 81.1311 12.8179 81.7806 16.4417C82.0647 17.9413 81.9832 19.489 81.5446 20.951C80.6277 23.8689 77.9501 25.876 74.8923 25.9387C73.7979 25.9638 72.7139 25.7152 71.7406 25.216C71.1934 24.9236 70.713 24.5205 70.3287 24.0339L70.2242 24.0527L70.22 24.0506ZM70.1992 17.9121C70.1156 19.0963 70.5145 20.2639 71.3082 21.1453C72.7494 22.6971 75.1743 22.7849 76.7261 21.3437C76.8222 21.2539 76.9141 21.1599 77.0018 21.0596C77.8561 20.0926 78.2112 18.7851 77.9668 17.5194C77.6911 15.4036 75.7528 13.9123 73.6371 14.188C73.1525 14.2507 72.6846 14.4052 72.2585 14.6433C71.0179 15.2637 70.2242 16.5231 70.2012 17.9121H70.1992Z" fill="white"/>
<path d="M87.606 12.8178C87.7376 12.6382 87.842 12.5003 87.9444 12.3646C88.8028 11.2137 90.221 10.6227 91.6433 10.8253C91.942 10.819 92.1885 11.055 92.1947 11.3537C92.1947 11.3537 92.1947 11.3579 92.1947 11.3599C92.2115 11.5479 92.2198 11.7359 92.2135 11.9239C92.2135 12.6382 92.2198 13.3504 92.2135 14.0647C92.2073 14.6391 91.9754 14.8626 91.4052 14.8939C90.8956 14.8981 90.3839 14.9336 89.8784 15.0025C88.8864 15.1592 88.0989 15.9236 87.9151 16.9115C87.8003 17.3815 87.7397 17.864 87.7376 18.3464C87.7188 20.4601 87.7292 22.5738 87.7292 24.6875C87.7292 25.3058 87.5266 25.5146 86.9147 25.5188C86.1481 25.523 85.3795 25.523 84.613 25.5188C84.0595 25.5146 83.8548 25.3099 83.8548 24.7627V11.7568C83.8548 11.2033 84.0574 10.9965 84.6046 10.9944C85.3315 10.9882 86.0583 10.9882 86.7852 10.9944C87.3345 10.9986 87.5392 11.2054 87.5475 11.7526C87.5517 12.0617 87.5517 12.3708 87.5559 12.6821C87.5663 12.7301 87.583 12.776 87.6039 12.822L87.606 12.8178Z" fill="white"/>
<path d="M39.2687 10.5705C41.94 10.5182 44.4443 11.8654 45.8729 14.1253C46.7961 15.5059 47.2118 17.1643 47.0447 18.8164C46.7961 21.9619 45.1168 24.1111 42.2721 25.3705C38.8405 26.7449 34.9139 25.5982 32.7605 22.5947C31.783 21.235 31.3214 19.5725 31.453 17.9037C31.6451 14.637 33.3537 12.4085 36.3049 11.1052C37.2427 10.7167 38.2536 10.535 39.2666 10.5725L39.2687 10.5705ZM43.1535 18.1752C43.1452 17.9538 43.1264 17.7324 43.093 17.5131C43.0491 17.2332 42.9781 16.9596 42.8778 16.6943C42.1405 14.6934 39.9203 13.67 37.9194 14.4094C37.2928 14.6412 36.7352 15.0318 36.3049 15.5435C35.4423 16.5607 35.1269 17.9329 35.4632 19.2237C35.8579 21.3081 37.8672 22.6762 39.9517 22.2814C40.3631 22.2042 40.7579 22.058 41.1213 21.8533C42.4538 21.1223 43.2433 19.6894 43.1535 18.1731V18.1752Z" fill="white"/>
</g>
<defs>
<clipPath id="clip0_1990_52719">
<rect width="92.2175" height="32" fill="white"/>
</clipPath>
</defs>
</svg>
